<?xml version="1.0" encoding="UTF-8" standalone="no" ?>
<!DOCTYPE svg PUBLIC "-//W3C//DTD SVG 1.1//EN" "http://www.w3.org/Graphics/SVG/1.1/DTD/svg11.dtd">
<svg xmlns="http://www.w3.org/2000/svg" xmlns:xlink="http://www.w3.org/1999/xlink" version="1.1" width="1080" height="1080" viewBox="0 0 1080 1080" xml:space="preserve">
<desc>Created with Fabric.js 5.2.4</desc>
<defs>
</defs>
<g transform="matrix(1 0 0 1 540 540)" id="df0a3520-4bcb-46e1-ae4c-4e1338a32d32"  >
<rect style="stroke: none; stroke-width: 1; stroke-dasharray: none; stroke-linecap: butt; stroke-dashoffset: 0; stroke-linejoin: miter; stroke-miterlimit: 4; fill: rgb(255,255,255); fill-rule: nonzero; opacity: 1; visibility: hidden;" vector-effect="non-scaling-stroke"  x="-540" y="-540" rx="0" ry="0" width="1080" height="1080" />
</g>
<g transform="matrix(1 0 0 1 540 540)" id="9f79ecea-5ca8-4cf4-8e0a-04758e0dcac6"  >
</g>
<g transform="matrix(1.52 0 0 1.52 1596.94 540)"  >
<g style="" vector-effect="non-scaling-stroke"   >
		<g transform="matrix(9.92 0 0 9.92 422.5 4.55)"  >
<path style="stroke: none; stroke-width: 1; stroke-dasharray: none; stroke-linecap: butt; stroke-dashoffset: 0; stroke-linejoin: miter; stroke-miterlimit: 4; fill: rgb(27,150,175); fill-rule: nonzero; opacity: 1;" vector-effect="non-scaling-stroke"  transform=" translate(-59.78, 10.1)" d="M 13.8 0.65 L 13.8 0.65 Q 8.55 0.65 5.95 -2.13 Q 3.35 -4.9 3.35 -10.85 L 3.35 -10.85 Q 3.35 -11.85 3.43 -12.95 Q 3.5 -14.05 3.6 -15.1 L 3.6 -15.1 Q 3.7 -16.1 3.75 -17.1 Q 3.8 -18.1 3.8 -18.9 L 3.8 -18.9 Q 3.8 -21.9 3.55 -24.1 Q 3.3 -26.3 2.05 -28.3 L 2.05 -28.3 Q 1.65 -28.95 1.65 -29.35 L 1.65 -29.35 Q 1.65 -30 2.38 -30.63 Q 3.1 -31.25 4.1 -31.7 Q 5.1 -32.15 6 -32.15 L 6 -32.15 Q 7.2 -32.15 7.73 -31.35 Q 8.25 -30.55 8.4 -29.38 Q 8.55 -28.2 8.55 -27 L 8.55 -27 Q 8.55 -25.75 8.43 -24.25 Q 8.3 -22.75 8.05 -21 L 8.05 -21 Q 7.85 -19.1 7.68 -17.03 Q 7.5 -14.95 7.5 -12.85 L 7.5 -12.85 Q 7.5 -9.95 8.53 -8.22 Q 9.55 -6.5 11.33 -5.73 Q 13.1 -4.95 15.3 -4.95 L 15.3 -4.95 Q 19.15 -4.95 21.1 -6.93 Q 23.05 -8.9 23.8 -12.1 L 23.8 -12.1 Q 24.15 -13.55 24.35 -15.43 Q 24.55 -17.3 24.55 -19.25 L 24.55 -19.25 Q 24.55 -21.7 24.23 -23.95 Q 23.9 -26.2 22.95 -27.9 L 22.95 -27.9 Q 22.75 -28.3 22.6 -28.6 Q 22.45 -28.9 22.45 -29.25 L 22.45 -29.25 Q 22.45 -29.95 23.05 -30.63 Q 23.65 -31.3 24.55 -31.73 Q 25.45 -32.15 26.4 -32.15 L 26.4 -32.15 Q 28 -32.15 28.55 -30.8 Q 29.1 -29.45 29.1 -27.65 L 29.1 -27.65 Q 29.1 -26.55 28.93 -24.45 Q 28.75 -22.35 28.45 -19.95 Q 28.15 -17.55 27.85 -15.43 Q 27.55 -13.3 27.3 -12.15 L 27.3 -12.15 Q 26.05 -6.2 22.9 -2.78 Q 19.75 0.65 13.8 0.65 Z M 39.2 0.65 L 39.2 0.65 Q 36.2 0.65 34.37 -1.23 Q 32.55 -3.1 32.55 -6.6 L 32.55 -6.6 Q 32.55 -9.1 33.52 -11.58 Q 34.5 -14.05 36.35 -16.05 Q 38.2 -18.05 40.8 -19.25 Q 43.4 -20.45 46.65 -20.45 L 46.65 -20.45 Q 49.65 -20.45 51.77 -19.43 Q 53.9 -18.4 53.9 -16.65 L 53.9 -16.65 Q 53.9 -16.2 53.8 -15.48 Q 53.7 -14.75 53.55 -14.3 L 53.55 -14.3 Q 53.4 -13.9 53.12 -13.58 Q 52.85 -13.25 52.4 -13.25 L 52.4 -13.25 Q 52.2 -13.25 51.65 -13.4 L 51.65 -13.4 Q 51.45 -12.35 51.35 -11.35 Q 51.25 -10.35 51.25 -9.35 L 51.25 -9.35 Q 51.25 -7.45 51.82 -5.98 Q 52.4 -4.5 54.1 -4.15 L 54.1 -4.15 Q 54.55 -4.05 54.82 -3.85 Q 55.1 -3.65 55.1 -3 L 55.1 -3 Q 55.1 -2.45 54.82 -1.6 Q 54.55 -0.75 53.77 -0.08 Q 53 0.6 51.55 0.6 L 51.55 0.6 Q 49.6 0.6 48.55 -0.83 Q 47.5 -2.25 47.5 -4.9 L 47.5 -4.9 Q 46.15 -2.45 44.07 -0.9 Q 42 0.65 39.2 0.65 Z M 40.8 -4.55 L 40.8 -4.55 Q 42.8 -4.55 44.32 -5.8 Q 45.85 -7.05 46.7 -8.95 L 46.7 -8.95 Q 47.25 -10.15 47.55 -11.58 Q 47.85 -13 47.95 -14.4 L 47.95 -14.4 Q 47.1 -14.8 46 -15.05 Q 44.9 -15.3 43.7 -15.3 L 43.7 -15.3 Q 40.65 -15.3 38.67 -13.5 Q 36.7 -11.7 36.7 -9 L 36.7 -9 Q 36.7 -7 37.8 -5.78 Q 38.9 -4.55 40.8 -4.55 Z M 62.4 -24.85 L 62.4 -24.85 Q 61 -24.9 60.15 -25.7 Q 59.3 -26.5 59.3 -27.95 L 59.3 -27.95 Q 59.34 -29.5 60.34 -30.48 Q 61.34 -31.45 62.9 -31.4 L 62.9 -31.4 Q 64.34 -31.35 65.17 -30.55 Q 66 -29.75 65.95 -28.3 L 65.95 -28.3 Q 65.9 -26.8 64.95 -25.83 Q 64 -24.85 62.4 -24.85 Z M 62.45 0.5 L 62.45 0.5 Q 60.95 0.5 60.09 -0.33 Q 59.25 -1.15 59.25 -3.15 L 59.25 -3.15 Q 59.25 -4.3 59.47 -5.4 Q 59.7 -6.5 60 -7.55 L 60 -7.55 Q 60.34 -8.65 60.57 -9.8 Q 60.8 -10.95 60.8 -12.25 L 60.8 -12.25 Q 60.8 -13.15 60.55 -13.98 Q 60.3 -14.8 59.45 -15.2 L 59.45 -15.2 Q 58.8 -15.55 58.32 -15.93 Q 57.84 -16.3 57.84 -16.9 L 57.84 -16.9 Q 57.84 -17.6 58.5 -18.4 Q 59.15 -19.2 60.22 -19.78 Q 61.3 -20.35 62.45 -20.35 L 62.45 -20.35 Q 63.7 -20.35 64.27 -19.7 Q 64.84 -19.05 65.05 -18.05 Q 65.25 -17.05 65.25 -16 L 65.25 -16 Q 65.25 -14.4 65 -12.88 Q 64.75 -11.35 64.5 -10.05 L 64.5 -10.05 Q 64.3 -9.1 64.2 -8.3 Q 64.09 -7.5 64.09 -6.8 L 64.09 -6.8 Q 64.09 -5.55 64.7 -4.93 Q 65.3 -4.3 66.4 -3.75 L 66.4 -3.75 Q 66.84 -3.5 66.84 -3 L 66.84 -3 Q 66.84 -2.6 66.45 -1.75 Q 66.05 -0.9 65.07 -0.2 Q 64.09 0.5 62.45 0.5 Z M 73.54 9.6 L 73.54 9.6 Q 72.59 9.6 72.09 9.13 Q 71.59 8.65 71.64 7.4 L 71.64 7.4 Q 71.64 6.65 71.77 4.73 Q 71.89 2.8 72.12 0.18 Q 72.34 -2.45 72.62 -5.3 Q 72.89 -8.15 73.14 -10.8 Q 73.39 -13.45 73.59 -15.35 L 73.59 -15.35 Q 73.09 -15.3 72.64 -15.28 Q 72.19 -15.25 71.74 -15.15 L 71.74 -15.15 Q 71.24 -15.05 70.99 -15.05 L 70.99 -15.05 Q 70.39 -15.05 70.19 -15.78 Q 69.99 -16.5 69.99 -17.15 L 69.99 -17.15 Q 69.99 -17.9 70.22 -18.4 Q 70.44 -18.9 71.19 -19.2 L 71.19 -19.2 Q 71.64 -19.4 72.37 -19.55 Q 73.09 -19.7 73.89 -19.8 L 73.89 -19.8 Q 74.14 -22.75 74.67 -25.4 Q 75.19 -28.05 76.29 -29.9 L 76.29 -29.9 Q 77.44 -31.8 79.42 -32.9 Q 81.39 -34 83.44 -34 L 83.44 -34 Q 84.94 -34 86.27 -33.43 Q 87.59 -32.85 88.42 -31.83 Q 89.24 -30.8 89.24 -29.5 L 89.24 -29.5 Q 89.24 -28.55 88.77 -27.95 Q 88.29 -27.35 87.69 -27.35 L 87.69 -27.35 Q 87.44 -27.35 87.14 -27.45 Q 86.84 -27.55 86.54 -27.65 L 86.54 -27.65 Q 85.99 -27.9 85.17 -28.08 Q 84.34 -28.25 83.39 -28.25 L 83.39 -28.25 Q 81.44 -28.25 80.32 -27.2 Q 79.19 -26.15 78.62 -24.33 Q 78.04 -22.5 77.69 -20.1 L 77.69 -20.1 Q 78.74 -20.2 79.94 -20.3 Q 81.14 -20.4 81.89 -20.4 L 81.89 -20.4 Q 83.09 -20.4 83.77 -20.03 Q 84.44 -19.65 84.44 -18.6 L 84.44 -18.6 Q 84.44 -17.95 84.22 -17.07 Q 83.99 -16.2 83.54 -15.53 Q 83.09 -14.85 82.49 -14.85 L 82.49 -14.85 Q 82.24 -14.85 81.64 -15 L 81.64 -15 Q 80.99 -15.1 79.94 -15.25 Q 78.89 -15.4 77.29 -15.45 L 77.29 -15.45 Q 77.09 -13.3 76.97 -10.68 Q 76.84 -8.05 76.84 -5.15 L 76.84 -5.15 Q 76.84 -2 77.04 0.3 Q 77.24 2.6 77.44 4.05 L 77.44 4.05 Q 77.54 4.7 77.59 5.2 Q 77.64 5.7 77.64 6 L 77.64 6 Q 77.64 7.45 76.94 8.22 Q 76.24 9 75.29 9.3 Q 74.34 9.6 73.54 9.6 Z M 89.59 0.5 L 89.59 0.5 Q 88.14 0.5 87.44 -0.3 Q 86.74 -1.1 86.74 -3.1 L 86.74 -3.1 Q 86.74 -4.05 86.89 -5.55 Q 87.04 -7.05 87.24 -8.8 L 87.24 -8.8 Q 87.54 -10.95 87.77 -13.3 Q 87.99 -15.65 87.99 -17.8 L 87.99 -17.8 Q 87.99 -20.85 87.72 -24.13 Q 87.44 -27.4 86.19 -29.85 L 86.19 -29.85 Q 85.74 -30.85 85.74 -31.3 L 85.74 -31.3 Q 85.74 -31.95 86.32 -32.55 Q 86.89 -33.15 87.74 -33.58 Q 88.59 -34 89.39 -34 L 89.39 -34 Q 90.69 -34 91.34 -32.83 Q 91.99 -31.65 92.19 -29.63 Q 92.39 -27.6 92.39 -25 L 92.39 -25 Q 92.39 -21.05 92.07 -18.15 Q 91.74 -15.25 91.44 -13.05 L 91.44 -13.05 Q 91.24 -11.6 91.07 -10.3 Q 90.89 -9 90.89 -7.95 L 90.89 -7.95 Q 90.89 -6.2 91.47 -5.43 Q 92.04 -4.65 93.34 -3.9 L 93.34 -3.9 Q 93.69 -3.7 93.87 -3.53 Q 94.04 -3.35 94.04 -3 L 94.04 -3 Q 94.04 -2.6 93.64 -1.75 Q 93.24 -0.9 92.27 -0.2 Q 91.29 0.5 89.59 0.5 Z M 98.69 13.8 L 98.69 13.8 Q 96.64 13.8 95.16 12.7 Q 93.69 11.6 93.69 9.75 L 93.69 9.75 Q 93.69 8.3 94.56 7.28 Q 95.44 6.25 96.74 6.25 L 96.74 6.25 Q 97.34 6.25 97.59 6.45 Q 97.84 6.65 97.99 6.9 L 97.99 6.9 Q 98.39 7.55 98.91 8.03 Q 99.44 8.5 100.34 8.5 L 100.34 8.5 Q 101.54 8.5 102.66 7.65 Q 103.79 6.8 104.74 5.7 L 104.74 5.7 Q 105.59 4.75 106.79 2.98 Q 107.99 1.2 109.19 -1.05 L 109.19 -1.05 Q 108.09 -0.1 107.14 0.33 Q 106.19 0.75 105.34 0.75 L 105.34 0.75 Q 104.29 0.75 103.29 -0.03 Q 102.29 -0.8 102.04 -2.95 L 102.04 -2.95 Q 101.89 -4.6 101.46 -6.6 Q 101.04 -8.6 100.41 -10.48 Q 99.79 -12.35 98.89 -13.65 L 98.89 -13.65 Q 98.54 -14.25 98.09 -14.55 Q 97.64 -14.85 96.79 -14.95 L 96.79 -14.95 Q 96.19 -15 96.01 -15.3 Q 95.84 -15.6 95.84 -16.25 L 95.84 -16.25 Q 95.84 -18.05 96.84 -19.15 Q 97.84 -20.25 99.54 -20.25 L 99.54 -20.25 Q 101.59 -20.25 102.49 -18.68 Q 103.39 -17.1 104.04 -14.85 L 104.04 -14.85 Q 104.29 -13.95 104.56 -12.48 Q 104.84 -11 105.06 -9.3 Q 105.29 -7.6 105.39 -6.05 L 105.39 -6.05 Q 105.44 -4.95 106.64 -4.95 L 106.64 -4.95 Q 108.24 -4.95 109.69 -5.95 Q 111.14 -6.95 112.06 -8.55 Q 112.99 -10.15 112.99 -11.9 L 112.99 -11.9 Q 112.99 -12.9 112.74 -13.7 Q 112.49 -14.5 111.89 -15.1 L 111.89 -15.1 Q 111.39 -15.7 111.09 -16.07 Q 110.79 -16.45 110.79 -16.95 L 110.79 -16.95 Q 110.79 -17.8 111.59 -18.55 Q 112.39 -19.3 113.51 -19.8 Q 114.64 -20.3 115.49 -20.3 L 115.49 -20.3 Q 116.99 -20.3 117.49 -18.88 Q 117.99 -17.45 117.74 -15.75 L 117.74 -15.75 Q 117.44 -13.4 116.54 -10.2 Q 115.64 -7 114.21 -3.5 Q 112.79 0 110.96 3.28 Q 109.14 6.55 107.09 9 L 107.09 9 Q 105.34 11.15 103.19 12.48 Q 101.04 13.8 98.69 13.8 Z" stroke-linecap="round" />
</g>
		<g transform="matrix(2.91 0 0 2.91 -690.48 0)"  >
<path style="stroke: rgb(255,255,255); stroke-opacity: 0; stroke-width: 1; stroke-dasharray: none; stroke-linecap: butt; stroke-dashoffset: 0; stroke-linejoin: miter; stroke-miterlimit: 4; fill: rgb(1,143,230); fill-rule: nonzero; opacity: 1;" vector-effect="non-scaling-stroke"  transform=" translate(-105.89, -105.89)" d="M 0 105.894 C 0 47.410000000000004 47.411 0 105.894 0 C 164.37800000000001 0 211.788 47.411 211.789 105.894 C 211.789 164.37800000000001 164.378 211.788 105.89399999999999 211.789 C 47.40999999999999 211.789 -1.4210854715202004e-14 164.378 -1.4210854715202004e-14 105.89399999999999 z M 105.894 196.831 C 156.11700000000002 196.831 196.83100000000002 156.117 196.83100000000002 105.89399999999999 C 196.83100000000002 55.67099999999999 156.11700000000002 14.956999999999994 105.89400000000002 14.957999999999984 C 55.67100000000002 14.957999999999984 14.957000000000022 55.67199999999998 14.958000000000013 105.89399999999999 C 14.958000000000013 156.117 55.67200000000001 196.831 105.89400000000002 196.831 z" stroke-linecap="round" />
</g>
		<g transform="matrix(2.86 0 0 2.86 -680.41 33.74)"  >
<polygon style="stroke: none; stroke-width: 1; stroke-dasharray: none; stroke-linecap: butt; stroke-dashoffset: 0; stroke-linejoin: miter; stroke-miterlimit: 4; fill: rgb(1,143,230); fill-rule: nonzero; opacity: 1;" vector-effect="non-scaling-stroke"  points="-6.41,11.72 17.38,11.28 -4.98,-11.72 -17.38,0.45 " />
</g>
		<g transform="matrix(2.86 0 0 2.86 -754.87 44.48)"  >
<polygon style="stroke: none; stroke-width: 1; stroke-dasharray: none; stroke-linecap: butt; stroke-dashoffset: 0; stroke-linejoin: miter; stroke-miterlimit: 4; fill: rgb(1,143,230); fill-rule: nonzero; opacity: 1;" vector-effect="non-scaling-stroke"  points="-27.49,22.62 27.49,20.79 -14.78,-22.62 -27.49,-10.15 " />
</g>
		<g transform="matrix(2.86 0 0 2.86 -661.76 0)"  >
<path style="stroke: none; stroke-width: 1; stroke-dasharray: none; stroke-linecap: butt; stroke-dashoffset: 0; stroke-linejoin: miter; stroke-miterlimit: 4; fill: rgb(1,143,230); fill-rule: nonzero; opacity: 1;" vector-effect="non-scaling-stroke"  transform=" translate(-60.04, -51.5)" d="M 33.436 21.503 L 34.417 23.859 C 39.992 23.024 46.027 22.297 50.204 22.297 C 50.204 22.297 48.388 23.722 46.377 26.181 L 48.159 27.901 L 45.417 27.424 C 43.983 29.384 42.588 31.831 41.787 34.626 L 44.129 34.735 L 41.497 35.788 C 40.672 39.596 41.024 43.976 43.876 48.621 C 43.876 48.621 48.605 45.127 53.462 40.21 L 52.804 35.611 L 54.781 38.839 C 58.531 34.843 62.106 30.108 63.368 25.587 C 63.368 25.587 63.249 29.259 64.125 33.462 L 66.937 32.536 C 66.937 32.536 65.529 33.831 64.432 34.787 C 65.468 38.839 67.495 43.072 71.468 44.825 C 71.468 44.825 72.205 43.304 72.906 40.911 C 74.936 46.461 76.531 52.168 77.769 57.946 C 77.2419806165786 60.20179178362654 76.75855722304036 62.46754721982366 76.31899999999999 64.74200000000002 C 74.117 76.302 73.04 88.142 73.588 99.999 L 77.94 99.999 C 77.128 89.098 77.755 78.061 79.419 67.178 C 80.873 77.252 81.269 89.845 80.717 99.999 L 87.341 99.999 C 87.542 86.718 86.22 71.081 83.096 58.209 C 82.7419887861093 56.771406304798724 82.3662792487027 55.339242886255064 81.969 53.913000000000046 C 82.50015919462261 51.59721070917288 83.07425807877226 49.29148023136885 83.69100000000003 46.99700000000009 C 84.663 43.451 85.739 39.917 86.925 36.431 C 87.452 38.611 88.332 41.434 89.699 43.601 C 89.699 43.601 94.421 33.942 90.129 29.005 L 100 35.015 C 100 35.015 96.431 22.744 88.539 24.443 C 85.808 20.361 80.084 14.401 70.96 16.983 C 70.96 16.983 78.807 10.402 81.085 7.112 C 81.085 7.112 69.95 1.543 65.898 12.173 C 63.367 7.87 56.532 -0.482 40.333 4.58 C 40.333 4.58 42.959 7.108 47.162 9.91 L 49.715 8.09 L 48.517 10.786 C 51.236 12.492 54.481 14.215 58.052 15.464 C 58.052 15.464 47.137 11.649 35.885 14.875 L 35.978 16.509 L 35.067 15.118 C 29.711 16.819 24.338 20.167 20.084 26.348 C 20.084 26.348 26.022 25.161 33.031 24.074 z M 81.435 24.954 C 79.387 25.707 77.503 27.319 75.961 30.294 C 75.961 30.294 80.038 29.65 83.903 29.221 C 83.903 29.221 78.32 31.153 77.677 38.02 C 77.677 38.02 82.057 35.912 85.034 33.951 C 83.489 37.984 82.122 42.061 80.87 46.193 C 80.663 46.884 80.475 47.578 80.276 48.271 C 79.2871809636615 45.20947279657429 78.18238391584794 42.186625318528876 76.964 39.20900000000001 C 76.08367026308633 37.074595009161406 75.13755149490935 34.967921671631004 74.12699999999992 32.89199999999993 C 74.145 30.371 73.788 27.692 72.731 25.083 C 72.733 25.083 76.72 24.424 81.435 24.954 M 73.898 8.146 C 73.898 8.146 67.987 14.152 66.529 17.519 C 66.529 17.52 67.349 10.514 73.898 8.146 M 66.803 20.158 C 66.803 20.158 69.988 24.797 69.805 32.986 C 69.805 32.986 69.249 24.862 65.288 19.666 z M 62.552 17.721 C 62.552 17.721 60.105 10.08 54.91 7.941 C 54.91 7.941 60.889 9.33 64.254 18.793 C 52.525 24.036 48.73 33.324 47.913 35.761 C 47.854 35.966 47.784 36.154 47.727 36.363 C 47.727 36.363 47.786 36.145 47.913 35.761 C 51.389 23.694 61.223 19.1 61.223 19.1 C 61.223 19.1 45.743 15.736 34.436 19.861 C 34.436 19.86 46.353 14.054 62.552 17.721" stroke-linecap="round" />
</g>
		<g transform="matrix(5.05 0 0 5.05 -0.4 0)"  >
<rect style="stroke: none; stroke-width: 1; stroke-dasharray: none; stroke-linecap: butt; stroke-dashoffset: 0; stroke-linejoin: miter; stroke-miterlimit: 4; fill: none; fill-rule: nonzero; opacity: 1;" vector-effect="non-scaling-stroke"  x="-197.76" y="-61.08808137476277" rx="0" ry="0" width="395.52" height="122.17616274952555" />
</g>
</g>
</g>
</svg>