<svg xmlns="http://www.w3.org/2000/svg" version="1.1" xmlns:xlink="http://www.w3.org/1999/xlink" xmlns:svgjs="http://svgjs.dev/svgjs" width="2000" height="616" viewBox="0 0 2000 616"><g transform="matrix(1,0,0,1,-1.2121212120798646,0.44503070746299045)"><svg viewBox="0 0 396 122" data-background-color="#dbd9db" preserveAspectRatio="xMidYMid meet" height="616" width="2000" xmlns="http://www.w3.org/2000/svg" xmlns:xlink="http://www.w3.org/1999/xlink"><g id="tight-bounds" transform="matrix(1,0,0,1,0.23999999999182364,-0.08813919855597874)"><svg viewBox="0 0 395.52 122.17616274952555" height="122.17616274952555" width="395.52"><g><svg viewBox="0 0 685.6223350307921 211.78879952829638" height="122.17616274952555" width="395.52"><g transform="matrix(1,0,0,1,290.1023350307921,22.961853145161342)"><svg viewBox="0 0 395.52 165.8650932379737" height="165.8650932379737" width="395.52"><g id="textblocktransform"><svg viewBox="0 0 395.52 165.8650932379737" height="165.8650932379737" width="395.52" id="textblock"><g><svg viewBox="0 0 395.52 165.8650932379737" height="165.8650932379737" width="395.52"><g transform="matrix(1,0,0,1,0,0)"><svg width="395.52" viewBox="1.65 -34 116.17333333332499 47.8" height="165.8650932379737" data-palette-color="#1b96af"><g class="wordmark-text-0" data-fill-palette-color="primary" id="text-0"><path d="M13.8 0.65L13.8 0.65Q8.55 0.65 5.95-2.13 3.35-4.9 3.35-10.85L3.35-10.85Q3.35-11.85 3.43-12.95 3.5-14.05 3.6-15.1L3.6-15.1Q3.7-16.1 3.75-17.1 3.8-18.1 3.8-18.9L3.8-18.9Q3.8-21.9 3.55-24.1 3.3-26.3 2.05-28.3L2.05-28.3Q1.65-28.95 1.65-29.35L1.65-29.35Q1.65-30 2.38-30.63 3.1-31.25 4.1-31.7 5.1-32.15 6-32.15L6-32.15Q7.2-32.15 7.73-31.35 8.25-30.55 8.4-29.38 8.55-28.2 8.55-27L8.55-27Q8.55-25.75 8.43-24.25 8.3-22.75 8.05-21L8.05-21Q7.85-19.1 7.68-17.03 7.5-14.95 7.5-12.85L7.5-12.85Q7.5-9.95 8.53-8.22 9.55-6.5 11.33-5.73 13.1-4.95 15.3-4.95L15.3-4.95Q19.15-4.95 21.1-6.93 23.05-8.9 23.8-12.1L23.8-12.1Q24.15-13.55 24.35-15.43 24.55-17.3 24.55-19.25L24.55-19.25Q24.55-21.7 24.23-23.95 23.9-26.2 22.95-27.9L22.95-27.9Q22.75-28.3 22.6-28.6 22.45-28.9 22.45-29.25L22.45-29.25Q22.45-29.95 23.05-30.63 23.65-31.3 24.55-31.73 25.45-32.15 26.4-32.15L26.4-32.15Q28-32.15 28.55-30.8 29.1-29.45 29.1-27.65L29.1-27.65Q29.1-26.55 28.93-24.45 28.75-22.35 28.45-19.95 28.15-17.55 27.85-15.43 27.55-13.3 27.3-12.15L27.3-12.15Q26.05-6.2 22.9-2.78 19.75 0.65 13.8 0.65ZM39.2 0.65L39.2 0.65Q36.2 0.65 34.37-1.23 32.55-3.1 32.55-6.6L32.55-6.6Q32.55-9.1 33.52-11.58 34.5-14.05 36.35-16.05 38.2-18.05 40.8-19.25 43.4-20.45 46.65-20.45L46.65-20.45Q49.65-20.45 51.77-19.43 53.9-18.4 53.9-16.65L53.9-16.65Q53.9-16.2 53.8-15.48 53.7-14.75 53.55-14.3L53.55-14.3Q53.4-13.9 53.12-13.58 52.85-13.25 52.4-13.25L52.4-13.25Q52.2-13.25 51.65-13.4L51.65-13.4Q51.45-12.35 51.35-11.35 51.25-10.35 51.25-9.35L51.25-9.35Q51.25-7.45 51.82-5.98 52.4-4.5 54.1-4.15L54.1-4.15Q54.55-4.05 54.82-3.85 55.1-3.65 55.1-3L55.1-3Q55.1-2.45 54.82-1.6 54.55-0.75 53.77-0.08 53 0.6 51.55 0.6L51.55 0.6Q49.6 0.6 48.55-0.83 47.5-2.25 47.5-4.9L47.5-4.9Q46.15-2.45 44.07-0.9 42 0.65 39.2 0.65ZM40.8-4.55L40.8-4.55Q42.8-4.55 44.32-5.8 45.85-7.05 46.7-8.95L46.7-8.95Q47.25-10.15 47.55-11.58 47.85-13 47.95-14.4L47.95-14.4Q47.1-14.8 46-15.05 44.9-15.3 43.7-15.3L43.7-15.3Q40.65-15.3 38.67-13.5 36.7-11.7 36.7-9L36.7-9Q36.7-7 37.8-5.78 38.9-4.55 40.8-4.55ZM62.4-24.85L62.4-24.85Q61-24.9 60.15-25.7 59.3-26.5 59.3-27.95L59.3-27.95Q59.34-29.5 60.34-30.48 61.34-31.45 62.9-31.4L62.9-31.4Q64.34-31.35 65.17-30.55 66-29.75 65.95-28.3L65.95-28.3Q65.9-26.8 64.95-25.83 64-24.85 62.4-24.85ZM62.45 0.5L62.45 0.5Q60.95 0.5 60.09-0.33 59.25-1.15 59.25-3.15L59.25-3.15Q59.25-4.3 59.47-5.4 59.7-6.5 60-7.55L60-7.55Q60.34-8.65 60.57-9.8 60.8-10.95 60.8-12.25L60.8-12.25Q60.8-13.15 60.55-13.98 60.3-14.8 59.45-15.2L59.45-15.2Q58.8-15.55 58.32-15.93 57.84-16.3 57.84-16.9L57.84-16.9Q57.84-17.6 58.5-18.4 59.15-19.2 60.22-19.78 61.3-20.35 62.45-20.35L62.45-20.35Q63.7-20.35 64.27-19.7 64.84-19.05 65.05-18.05 65.25-17.05 65.25-16L65.25-16Q65.25-14.4 65-12.88 64.75-11.35 64.5-10.05L64.5-10.05Q64.3-9.1 64.2-8.3 64.09-7.5 64.09-6.8L64.09-6.8Q64.09-5.55 64.7-4.93 65.3-4.3 66.4-3.75L66.4-3.75Q66.84-3.5 66.84-3L66.84-3Q66.84-2.6 66.45-1.75 66.05-0.9 65.07-0.2 64.09 0.5 62.45 0.5ZM73.54 9.6L73.54 9.6Q72.59 9.6 72.09 9.13 71.59 8.65 71.64 7.4L71.64 7.4Q71.64 6.65 71.77 4.73 71.89 2.8 72.12 0.18 72.34-2.45 72.62-5.3 72.89-8.15 73.14-10.8 73.39-13.45 73.59-15.35L73.59-15.35Q73.09-15.3 72.64-15.28 72.19-15.25 71.74-15.15L71.74-15.15Q71.24-15.05 70.99-15.05L70.99-15.05Q70.39-15.05 70.19-15.78 69.99-16.5 69.99-17.15L69.99-17.15Q69.99-17.9 70.22-18.4 70.44-18.9 71.19-19.2L71.19-19.2Q71.64-19.4 72.37-19.55 73.09-19.7 73.89-19.8L73.89-19.8Q74.14-22.75 74.67-25.4 75.19-28.05 76.29-29.9L76.29-29.9Q77.44-31.8 79.42-32.9 81.39-34 83.44-34L83.44-34Q84.94-34 86.27-33.43 87.59-32.85 88.42-31.83 89.24-30.8 89.24-29.5L89.24-29.5Q89.24-28.55 88.77-27.95 88.29-27.35 87.69-27.35L87.69-27.35Q87.44-27.35 87.14-27.45 86.84-27.55 86.54-27.65L86.54-27.65Q85.99-27.9 85.17-28.08 84.34-28.25 83.39-28.25L83.39-28.25Q81.44-28.25 80.32-27.2 79.19-26.15 78.62-24.33 78.04-22.5 77.69-20.1L77.69-20.1Q78.74-20.2 79.94-20.3 81.14-20.4 81.89-20.4L81.89-20.4Q83.09-20.4 83.77-20.03 84.44-19.65 84.44-18.6L84.44-18.6Q84.44-17.95 84.22-17.07 83.99-16.2 83.54-15.53 83.09-14.85 82.49-14.85L82.49-14.85Q82.24-14.85 81.64-15L81.64-15Q80.99-15.1 79.94-15.25 78.89-15.4 77.29-15.45L77.29-15.45Q77.09-13.3 76.97-10.68 76.84-8.05 76.84-5.15L76.84-5.15Q76.84-2 77.04 0.3 77.24 2.6 77.44 4.05L77.44 4.05Q77.54 4.7 77.59 5.2 77.64 5.7 77.64 6L77.64 6Q77.64 7.45 76.94 8.22 76.24 9 75.29 9.3 74.34 9.6 73.54 9.6ZM89.59 0.5L89.59 0.5Q88.14 0.5 87.44-0.3 86.74-1.1 86.74-3.1L86.74-3.1Q86.74-4.05 86.89-5.55 87.04-7.05 87.24-8.8L87.24-8.8Q87.54-10.95 87.77-13.3 87.99-15.65 87.99-17.8L87.99-17.8Q87.99-20.85 87.72-24.13 87.44-27.4 86.19-29.85L86.19-29.85Q85.74-30.85 85.74-31.3L85.74-31.3Q85.74-31.95 86.32-32.55 86.89-33.15 87.74-33.58 88.59-34 89.39-34L89.39-34Q90.69-34 91.34-32.83 91.99-31.65 92.19-29.63 92.39-27.6 92.39-25L92.39-25Q92.39-21.05 92.07-18.15 91.74-15.25 91.44-13.05L91.44-13.05Q91.24-11.6 91.07-10.3 90.89-9 90.89-7.95L90.89-7.95Q90.89-6.2 91.47-5.43 92.04-4.65 93.34-3.9L93.34-3.9Q93.69-3.7 93.87-3.53 94.04-3.35 94.04-3L94.04-3Q94.04-2.6 93.64-1.75 93.24-0.9 92.27-0.2 91.29 0.5 89.59 0.5ZM98.69 13.8L98.69 13.8Q96.64 13.8 95.16 12.7 93.69 11.6 93.69 9.75L93.69 9.75Q93.69 8.3 94.56 7.28 95.44 6.25 96.74 6.25L96.74 6.25Q97.34 6.25 97.59 6.45 97.84 6.65 97.99 6.9L97.99 6.9Q98.39 7.55 98.91 8.03 99.44 8.5 100.34 8.5L100.34 8.5Q101.54 8.5 102.66 7.65 103.79 6.8 104.74 5.7L104.74 5.7Q105.59 4.75 106.79 2.98 107.99 1.2 109.19-1.05L109.19-1.05Q108.09-0.1 107.14 0.33 106.19 0.75 105.34 0.75L105.34 0.75Q104.29 0.75 103.29-0.03 102.29-0.8 102.04-2.95L102.04-2.95Q101.89-4.6 101.46-6.6 101.04-8.6 100.41-10.48 99.79-12.35 98.89-13.65L98.89-13.65Q98.54-14.25 98.09-14.55 97.64-14.85 96.79-14.95L96.79-14.95Q96.19-15 96.01-15.3 95.84-15.6 95.84-16.25L95.84-16.25Q95.84-18.05 96.84-19.15 97.84-20.25 99.54-20.25L99.54-20.25Q101.59-20.25 102.49-18.68 103.39-17.1 104.04-14.85L104.04-14.85Q104.29-13.95 104.56-12.48 104.84-11 105.06-9.3 105.29-7.6 105.39-6.05L105.39-6.05Q105.44-4.95 106.64-4.95L106.64-4.95Q108.24-4.95 109.69-5.95 111.14-6.95 112.06-8.55 112.99-10.15 112.99-11.9L112.99-11.9Q112.99-12.9 112.74-13.7 112.49-14.5 111.89-15.1L111.89-15.1Q111.39-15.7 111.09-16.07 110.79-16.45 110.79-16.95L110.79-16.95Q110.79-17.8 111.59-18.55 112.39-19.3 113.51-19.8 114.64-20.3 115.49-20.3L115.49-20.3Q116.99-20.3 117.49-18.88 117.99-17.45 117.74-15.75L117.74-15.75Q117.44-13.4 116.54-10.2 115.64-7 114.21-3.5 112.79 0 110.96 3.28 109.14 6.55 107.09 9L107.09 9Q105.34 11.15 103.19 12.48 101.04 13.8 98.69 13.8Z" fill="#1b96af" data-fill-palette-color="primary"></path></g></svg></g></svg></g></svg></g></svg></g><g><svg viewBox="0 0 211.78879952829638 211.78879952829638" height="211.78879952829638" width="211.78879952829638"><g><svg></svg></g><g id="icon-0"><svg viewBox="0 0 211.78879952829638 211.78879952829638" height="211.78879952829638" width="211.78879952829638"><g><path d="M0 105.894c0-58.484 47.411-105.894 105.894-105.894 58.484 0 105.894 47.411 105.895 105.894 0 58.484-47.411 105.894-105.895 105.895-58.484 0-105.894-47.411-105.894-105.895zM105.894 196.831c50.223 0 90.937-40.714 90.937-90.937 0-50.223-40.714-90.937-90.937-90.936-50.223 0-90.937 40.714-90.936 90.936 0 50.223 40.714 90.937 90.936 90.937z" data-fill-palette-color="accent" fill="#018fe6" stroke="transparent"></path></g><g transform="matrix(1,0,0,1,56.79156760855525,58.26555841153227)"><svg viewBox="0 0 98.20566431118588 95.25768270523184" height="95.25768270523184" width="98.20566431118588"><g><svg xmlns="http://www.w3.org/2000/svg" xmlns:xlink="http://www.w3.org/1999/xlink" version="1.1" x="0" y="0" viewBox="0 3.0008447781308365 100 96.99815522186915" enable-background="new 0 0 100 100" xml:space="preserve" height="95.25768270523184" width="98.20566431118588" class="icon-dxe-0" data-fill-palette-color="accent" id="dxe-0"><g fill="#018fe6" data-fill-palette-color="accent"><polygon points="47.114,75.011 70.899,74.573 48.538,51.58 36.144,63.743  " fill="#018fe6" data-fill-palette-color="accent"></polygon><polygon points="0,89.671 54.979,87.84 12.713,44.426 0,56.901  " fill="#018fe6" data-fill-palette-color="accent"></polygon><path d="M33.436 21.503L34.417 23.859C39.992 23.024 46.027 22.297 50.204 22.297 50.204 22.297 48.388 23.722 46.377 26.181L48.159 27.901 45.417 27.424C43.983 29.384 42.588 31.831 41.787 34.626L44.129 34.735 41.497 35.788C40.672 39.596 41.024 43.976 43.876 48.621 43.876 48.621 48.605 45.127 53.462 40.21L52.804 35.611 54.781 38.839C58.531 34.843 62.106 30.108 63.368 25.587 63.368 25.587 63.249 29.259 64.125 33.462L66.937 32.536S65.529 33.831 64.432 34.787C65.468 38.839 67.495 43.072 71.468 44.825 71.468 44.825 72.205 43.304 72.906 40.911 74.936 46.461 76.531 52.168 77.769 57.946A180 180 0 0 0 76.319 64.742C74.117 76.302 73.04 88.142 73.588 99.999H77.94C77.128 89.098 77.755 78.061 79.419 67.178 80.873 77.252 81.269 89.845 80.717 99.999H87.341C87.542 86.718 86.22 71.081 83.096 58.209A147 147 0 0 0 81.969 53.913 192 192 0 0 1 83.691 46.997C84.663 43.451 85.739 39.917 86.925 36.431 87.452 38.611 88.332 41.434 89.699 43.601 89.699 43.601 94.421 33.942 90.129 29.005L100 35.015S96.431 22.744 88.539 24.443C85.808 20.361 80.084 14.401 70.96 16.983 70.96 16.983 78.807 10.402 81.085 7.112 81.085 7.112 69.95 1.543 65.898 12.173 63.367 7.87 56.532-0.482 40.333 4.58 40.333 4.58 42.959 7.108 47.162 9.91L49.715 8.09 48.517 10.786C51.236 12.492 54.481 14.215 58.052 15.464 58.052 15.464 47.137 11.649 35.885 14.875L35.978 16.509 35.067 15.118C29.711 16.819 24.338 20.167 20.084 26.348 20.084 26.348 26.022 25.161 33.031 24.074zM81.435 24.954C79.387 25.707 77.503 27.319 75.961 30.294 75.961 30.294 80.038 29.65 83.903 29.221 83.903 29.221 78.32 31.153 77.677 38.02 77.677 38.02 82.057 35.912 85.034 33.951 83.489 37.984 82.122 42.061 80.87 46.193 80.663 46.884 80.475 47.578 80.276 48.271A127 127 0 0 0 76.964 39.209 112 112 0 0 0 74.127 32.892C74.145 30.371 73.788 27.692 72.731 25.083 72.733 25.083 76.72 24.424 81.435 24.954M73.898 8.146S67.987 14.152 66.529 17.519C66.529 17.52 67.349 10.514 73.898 8.146M66.803 20.158S69.988 24.797 69.805 32.986C69.805 32.986 69.249 24.862 65.288 19.666zM62.552 17.721S60.105 10.08 54.91 7.941C54.91 7.941 60.889 9.33 64.254 18.793 52.525 24.036 48.73 33.324 47.913 35.761 47.854 35.966 47.784 36.154 47.727 36.363 47.727 36.363 47.786 36.145 47.913 35.761 51.389 23.694 61.223 19.1 61.223 19.1S45.743 15.736 34.436 19.861C34.436 19.86 46.353 14.054 62.552 17.721" fill="#018fe6" data-fill-palette-color="accent"></path></g></svg></g></svg></g></svg></g></svg></g></svg></g><defs></defs></svg><rect width="395.52" height="122.17616274952555" fill="none" stroke="none" visibility="hidden"></rect></g></svg></g></svg>